<?xml version="1.0" standalone="no"?>
<!DOCTYPE svg PUBLIC "-//W3C//DTD SVG 20010904//EN"
 "http://www.w3.org/TR/2001/REC-SVG-20010904/DTD/svg10.dtd">
<svg version="1.0" xmlns="http://www.w3.org/2000/svg"
 width="700.000000pt" height="700.000000pt" viewBox="0 0 700.000000 700.000000"
 preserveAspectRatio="xMidYMid meet">
<metadata>
Created by potrace 1.14, written by Peter Selinger 2001-2017
</metadata>
<g transform="translate(0.000000,700.000000) scale(0.100000,-0.100000)"
fill="#000000" stroke="none">
<path d="M805 6115 c-63 -17 -127 -58 -161 -107 -66 -90 -61 94 -60 -2528 l1
-2385 24 -48 c31 -64 84 -115 151 -146 l55 -26 2674 0 c2524 0 2678 1 2725 17
67 24 110 55 146 105 53 74 56 101 55 593 0 293 3 450 10 451 6 0 72 1 148 1
l137 0 -2 1456 -3 1457 -138 1 c-76 1 -141 4 -144 8 -4 3 -7 217 -8 474 -1
464 -1 467 -24 514 -31 64 -84 116 -150 147 l-56 25 -2669 1 c-1838 0 -2682
-3 -2711 -10z m5022 -579 c4 -3 7 -134 7 -291 l1 -285 -25 0 c-14 -1 -428 -1
-920 -2 -492 0 -926 -4 -965 -9 -236 -29 -442 -102 -630 -224 -508 -329 -759
-923 -640 -1515 2 -14 7 -38 11 -55 13 -67 68 -216 114 -306 76 -153 185 -300
304 -409 86 -80 99 -90 189 -151 111 -74 222 -128 357 -173 214 -71 179 -69
1235 -72 523 -2 955 -3 960 -4 6 0 10 -104 10 -290 l0 -290 -125 0 c-1171 -3
-4534 1 -4538 5 -4 4 -7 4031 -3 4067 1 4 20 8 44 10 78 6 4609 0 4614 -6z
m293 -1165 c4 -1 5 -1724 1 -1741 -2 -8 -2141 -3 -2171 4 -14 4 -41 9 -60 12
-86 14 -246 89 -331 154 -173 134 -293 326 -334 538 -17 84 -18 250 -3 316 5
22 12 52 14 65 11 57 69 186 114 255 138 212 358 354 601 389 64 9 352 12
1125 11 572 -1 1041 -2 1044 -3z"/>
<path d="M4329 3792 l-245 -2 -1 -290 0 -290 89 0 c48 0 198 -1 333 -1 135 0
292 1 349 1 l105 0 -1 290 c0 160 -3 290 -7 290 -42 3 -431 4 -622 2z"/>
</g>
</svg>
